<svg xmlns="http://www.w3.org/2000/svg" viewBox="0 0 64 64" fill="none">
  <rect width="64" height="64" rx="8" fill="#f7df1e"/>
  <g fill="none" stroke="#000" stroke-width="1.2" stroke-linecap="round">
    <path d="M32 32 L49 32"/>
    <path d="M32 32 L45.8 22"/>
    <path d="M32 32 L37.3 15.8"/>
    <path d="M32 32 L26.8 15.8"/>
    <path d="M32 32 L18.2 22"/>
    <path d="M32 32 L15 32"/>
    <path d="M32 32 L18.2 42"/>
    <path d="M32 32 L26.8 48.2"/>
    <path d="M32 32 L37.3 48.2"/>
    <path d="M32 32 L45.8 42"/>
  </g>
  <g fill="#000">
    <circle cx="49" cy="32" r="3"/>
    <circle cx="45.8" cy="22" r="2.1"/>
    <circle cx="37.3" cy="15.8" r="2.7"/>
    <circle cx="26.8" cy="15.8" r="2.2"/>
    <circle cx="18.2" cy="22" r="3"/>
    <circle cx="15" cy="32" r="2.4"/>
    <circle cx="18.2" cy="42" r="2.8"/>
    <circle cx="26.8" cy="48.2" r="2"/>
    <circle cx="37.3" cy="48.2" r="3.2"/>
    <circle cx="45.8" cy="42" r="2.3"/>
    <circle cx="32" cy="32" r="3.6"/>
  </g>
</svg>
